# xmcd
#
# Track frame offsets: 
#        183
#        13405
#        26525
#        36535
#        51790
#        61920
#        71653
#        83205
#        94005
#        106478
#        120265
#        131610
#        144330
#        156625
#        169438
#        181573
#        193330
#        205315
#
# Disc length: 2896 seconds
#
# Revision: 3
# Processed by: cddbd v1.5.2PL0 Copyright (c) Steve Scherf et al.
# Submitted via: ExactAudioCopyFreeDBPlugin 1.0
#
DISCID=060b4e12
DTITLE=Magic Sam - All Your Love
DYEAR=1900
DGENRE=Blues
TTITLE0=All Your Love
TTITLE1=Everything Gonna Be Alright
TTITLE2=Look Watcha Done
TTITLE3=Easy Baby
TTITLE4=All My Whole Life
TTITLE5=Love Me with A Feeling
TTITLE6=She Belongs To Me
TTITLE7=Out Of Bad Luck
TTITLE8=Roll Your Moneymaker
TTITLE9=Call Me If You Need Me
TTITLE10=Magic Rocker
TTITLE11=All Night Long
TTITLE12=21 Days In Jail
TTITLE13=Love Me This Way
TTITLE14=My Love Is Your Love
TTITLE15=Mr Charlie
TTITLE16=Blue Light Boogie
TTITLE17=You Don't Have To Work
EXTD=
EXTT0=
EXTT1=
EXTT2=
EXTT3=
EXTT4=
EXTT5=
EXTT6=
EXTT7=
EXTT8=
EXTT9=
EXTT10=
EXTT11=
EXTT12=
EXTT13=
EXTT14=
EXTT15=
EXTT16=
EXTT17=
PLAYORDER=
